{"title":"Halloween 5 The Revenge of Michael Myers 1989 720p Brrip x264-SS","uid":11984902,"size":796624926,"categoryP":"video","categoryS":"hd___movies","magnet":"?xt=urn:btih:f4e46a53af55e32d2b49cc30bbb05137d10bc5fb&amp;dn=Halloween+5+The+Revenge+of+Michael+Myers+1989+720p+Brrip+x264-SS&amp;tr=udp%3A%2F%2Ftracker.openbittorrent.com%3A80&amp;tr=udp%3A%2F%2Fopen.demonii.com%3A1337&amp;tr=udp%3A%2F%2Ftracker.coppersurfer.tk%3A6969&amp;tr=udp%3A%2F%2Fexodus.desync.com%3A6969","seeders":0,"leechers":0,"uploader":"myhoes14","files":1,"time":1433327010,"description":"Source:Halloween.5.The.Revenge.of.Michael.Myers.1989.720p.BluRay.DD5.1.x264-HANDJOB\n\nMedia Info\n\nFormat : MPEG-4\nFormat profile : Base Media\nCodec ID : isom\nFile size : 760 MiB\nDuration : 1h 37mn\nOverall bit rate mode : Variable\nOverall bit rate : 1 094 Kbps\nEncoded date : UTC 2015-03-02 06:36:36\nTagged date : UTC 2015-03-02 06:36:36\n\nVideo\nID : 1\nFormat : AVC\nFormat/Info : Advanced Video Codec\nFormat profile : &lt;a class=&quot;__cf_email__&quot; href=&quot;/cdn-cgi/l/email-protection&quot; data-cfemail=&quot;aee6c7c9c6eee29a809f&quot;&gt;[email&amp;#160;protected]&lt;/a&gt;&lt;script data-cfhash='f9e31' type=&quot;text/javascript&quot;&gt;\n/* &lt;![CDATA[ */!function(){try{var t=&quot;currentScript&quot;in document?document.currentScript:function(){for(var t=document.getElementsByTagName(&quot;script&quot;),e=t.length;e--;)if(t[e].getAttribute(&quot;data-cfhash&quot;))return t[e]}();if(t&amp;&amp;t.previousSibling){var e,r,n,i,c=t.previousSibling,a=c.getAttribute(&quot;data-cfemail&quot;);if(a){for(e=&quot;&quot;,r=parseInt(a.substr(0,2),16),n=2;a.length-n;n+=2)i=parseInt(a.substr(n,2),16)^r,e+=String.fromCharCode(i);e=document.createTextNode(e),c.parentNode.replaceChild(e,c)}t.parentNode.removeChild(t);}}catch(u){}}()/* ]]&gt; */&lt;/script&gt;\nFormat settings, CABAC : Yes\nFormat settings, ReFrames : 9 frames\nCodec ID : avc1\nCodec ID/Info : Advanced Video Coding\nDuration : 1h 37mn\nBit rate : 920 Kbps\nMaximum bit rate : 5 097 Kbps\nWidth : 1 276 pixels\nHeight : 720 pixels\nDisplay aspect ratio : 16:9\nFrame rate mode : Constant\nFrame rate : 23.976 fps\nColor space : YUV\nChroma subsampling : 4:2:0\nBit depth : 8 bits\nScan type : Progressive\nBits/(Pixel*Frame) : 0.042\nStream size : 639 MiB (84%)\nWriting library : x264 core 142 r2431 ac76440\nEncoding settings : cabac=1 / ref=9 / deblock=1:-1:-1 / analyse=0x3:0x133 / me=umh / subme=11 / psy=1 / psy_rd=1.00:0.00 / mixed_ref=1 / me_range=24 / chroma_me=1 / trellis=2 / 8x8dct=1 / cqm=0 / deadzone=21,11 / fast_pskip=1 / chroma_qp_offset=-2 / threads=6 / lookahead_threads=1 / sliced_threads=0 / nr=0 / decimate=1 / interlaced=0 / bluray_compat=0 / constrained_intra=0 / bframes=8 / b_pyramid=2 / b_adapt=2 / b_bias=0 / direct=3 / weightb=1 / open_gop=0 / weightp=2 / keyint=240 / keyint_min=23 / scenecut=40 / intra_refresh=0 / rc_lookahead=60 / rc=2pass / mbtree=1 / bitrate=920 / ratetol=1.0 / qcomp=0.60 / qpmin=0 / qpmax=69 / qpstep=4 / cplxblur=20.0 / qblur=0.5 / vbv_maxrate=62500 / vbv_bufsize=78125 / nal_hrd=none / filler=0 / ip_ratio=1.40 / aq=1:1.00\nEncoded date : UTC 2015-03-02 06:36:36\nTagged date : UTC 2015-03-02 06:37:25\nColor primaries : BT.709\nMatrix coefficients : BT.709\nColor range : Limited\n\nAudio\nID : 2\nFormat : AAC\nFormat/Info : Advanced Audio Codec\nFormat profile : LC\nCodec ID : 40\nDuration : 1h 37mn\nBit rate mode : Variable\nBit rate : 171 Kbps\nMaximum bit rate : 201 Kbps\nChannel(s) : 2 channels\nChannel positions : Front: L R\nSampling rate : 48.0 KHz\nCompression mode : Lossy\nStream size : 119 MiB (16%)\nLanguage : English\nEncoded date : UTC 2015-03-02 06:27:49\nTagged date : UTC 2015-03-02 06:37:25\n\nMenu\n00:00:00.000 : Road Kill\n00:05:49.390 : Just Another Nightmare\n00:10:07.648 : The Evil Child\n00:19:08.230 : Killer in the Closet\n00:25:47.546 : Panic\n00:32:02.921 : The Old House\n00:42:31.632 : Date with Death\n00:49:27.965 : The Party\n01:01:24.764 : The Corpses\n01:09:13.149 : Setting the Trap\n01:20:11.807 : Hide &amp; Seek\n01:24:40.075 : The Attic","torrent":{"xt":"urn:btih:f4e46a53af55e32d2b49cc30bbb05137d10bc5fb","amp;dn":"Halloween+5+The+Revenge+of+Michael+Myers+1989+720p+Brrip+x264-SS","amp;tr":["udp%3A%2F%2Ftracker.openbittorrent.com%3A80","udp%3A%2F%2Fopen.demonii.com%3A1337","udp%3A%2F%2Ftracker.coppersurfer.tk%3A6969","udp%3A%2F%2Fexodus.desync.com%3A6969"],"infoHash":"f4e46a53af55e32d2b49cc30bbb05137d10bc5fb","infoHashBuffer":{"type":"Buffer","data":[244,228,106,83,175,85,227,45,43,73,204,48,187,176,81,55,209,11,197,251]},"announce":[],"urlList":[]}}